{
	"asset": {
		"generator": "Tilt Brush 23.2.28f36f08b",
		"version": "1.1",
		"copyright": "Unknown."
	},
	"buffers": {
		"buffer_sketch": {
			"byteLength": 81392,
			"type": "arraybuffer",
			"uri": "sketch.bin"
		}
	},
	"accessors": {
		"accessor_position_Flat_2d35bcf0-e4d8-452c-97b1-3311be063130_0_i0": {
			"bufferView": "vec3BufferView",
			"byteOffset": 0,
			"byteStride": 12,
			"componentType": 5126,
			"count": 1172,
			"max": [ 0.0275920816, 2.03149867, 0.48208943 ],
			"min": [ -0.431429297, 1.08996165, -0.656487942 ],
			"type": "VEC3"
		},
		"accessor_normal_Flat_2d35bcf0-e4d8-452c-97b1-3311be063130_0_i0": {
			"bufferView": "vec3BufferView",
			"byteOffset": 14064,
			"byteStride": 12,
			"componentType": 5126,
			"count": 1172,
			"type": "VEC3"
		},
		"accessor_color_Flat_2d35bcf0-e4d8-452c-97b1-3311be063130_0_i0": {
			"bufferView": "vec4BufferView",
			"byteOffset": 0,
			"byteStride": 16,
			"componentType": 5126,
			"count": 1172,
			"type": "VEC4"
		},
		"accessor_tangent_Flat_2d35bcf0-e4d8-452c-97b1-3311be063130_0_i0": {
			"bufferView": "vec4BufferView",
			"byteOffset": 18752,
			"byteStride": 16,
			"componentType": 5126,
			"count": 1172,
			"type": "VEC4"
		},
		"accessor_uv0_Flat_2d35bcf0-e4d8-452c-97b1-3311be063130_0_i0": {
			"bufferView": "vec2BufferView",
			"byteOffset": 0,
			"byteStride": 8,
			"componentType": 5126,
			"count": 1172,
			"type": "VEC2"
		},
		"accessor_indices_0_Flat_2d35bcf0-e4d8-452c-97b1-3311be063130_0_i0": {
			"bufferView": "ushortBufferView",
			"byteOffset": 0,
			"byteStride": 0,
			"componentType": 5123,
			"count": 3192,
			"max": [ 1171 ],
			"min": [ 0 ],
			"type": "SCALAR"
		}
	},
	"bufferViews": {
		"ushortBufferView": {
			"buffer": "buffer_sketch",
			"byteLength": 6384,
			"byteOffset": 0,
			"target": 34963
		},
		"vec2BufferView": {
			"buffer": "buffer_sketch",
			"byteLength": 9376,
			"byteOffset": 6384,
			"target": 34962
		},
		"vec3BufferView": {
			"buffer": "buffer_sketch",
			"byteLength": 28128,
			"byteOffset": 15760,
			"target": 34962
		},
		"vec4BufferView": {
			"buffer": "buffer_sketch",
			"byteLength": 37504,
			"byteOffset": 43888,
			"target": 34962
		}
	},
	"meshes": {
		"mesh_Flat_2d35bcf0-e4d8-452c-97b1-3311be063130_0_i0": {
			"name": "mesh_Flat_2d35bcf0-e4d8-452c-97b1-3311be063130_0_i0",
			"primitives": [
				{
					"attributes": {
						"POSITION": "accessor_position_Flat_2d35bcf0-e4d8-452c-97b1-3311be063130_0_i0",
						"NORMAL": "accessor_normal_Flat_2d35bcf0-e4d8-452c-97b1-3311be063130_0_i0",
						"COLOR": "accessor_color_Flat_2d35bcf0-e4d8-452c-97b1-3311be063130_0_i0",
						"TANGENT": "accessor_tangent_Flat_2d35bcf0-e4d8-452c-97b1-3311be063130_0_i0",
						"TEXCOORD_0": "accessor_uv0_Flat_2d35bcf0-e4d8-452c-97b1-3311be063130_0_i0"
					},
					"indices": "accessor_indices_0_Flat_2d35bcf0-e4d8-452c-97b1-3311be063130_0_i0",
					"material": "material_2d35bcf0-e4d8-452c-97b1-3311be063130",
					"mode": 4
				}
			]
		}
	},
	"shaders": {
		"vertex_2d35bcf0-e4d8-452c-97b1-3311be063130": {
			"type": 35633,
			"uri": "https://www.tiltbrush.com/shaders/brushes/Flat-2d35bcf0-e4d8-452c-97b1-3311be063130/Flat-2d35bcf0-e4d8-452c-97b1-3311be063130-v10.0-vertex.glsl"
		},
		"fragment_2d35bcf0-e4d8-452c-97b1-3311be063130": {
			"type": 35632,
			"uri": "https://www.tiltbrush.com/shaders/brushes/Flat-2d35bcf0-e4d8-452c-97b1-3311be063130/Flat-2d35bcf0-e4d8-452c-97b1-3311be063130-v10.0-fragment.glsl"
		}
	},
	"programs": {
		"program_2d35bcf0-e4d8-452c-97b1-3311be063130": {
			"attributes": [
				"a_position",
				"a_normal",
				"a_color",
				"a_tangent",
				"a_texcoord0"
			],
			"vertexShader": "vertex_2d35bcf0-e4d8-452c-97b1-3311be063130",
			"fragmentShader": "fragment_2d35bcf0-e4d8-452c-97b1-3311be063130"
		}
	},
	"techniques": {
		"technique_2d35bcf0-e4d8-452c-97b1-3311be063130": {
			"program": "program_2d35bcf0-e4d8-452c-97b1-3311be063130",
			"parameters": {
				"position": {
					"type": 35665,
					"semantic": "POSITION"
				},
				"normal": {
					"type": 35665,
					"semantic": "NORMAL"
				},
				"color": {
					"type": 35666,
					"semantic": "COLOR"
				},
				"tangent": {
					"type": 35666,
					"semantic": "TANGENT"
				},
				"texcoord0": {
					"type": 35664,
					"semantic": "TEXCOORD_0"
				},
				"modelViewMatrix": {
					"type": 35676,
					"semantic": "MODELVIEW"
				},
				"projectionMatrix": {
					"type": 35676,
					"semantic": "PROJECTION"
				},
				"normalMatrix": {
					"type": 35675,
					"semantic": "MODELVIEWINVERSETRANSPOSE"
				},
				"SceneLight_0_matrix": {
					"type": 35676,
					"semantic": "MODELVIEW",
					"node": "node_SceneLight_0_i1"
				},
				"SceneLight_0_color": {
					"type": 35666,
					"node": "node_SceneLight_0_i1"
				},
				"SceneLight_1_matrix": {
					"type": 35676,
					"semantic": "MODELVIEW",
					"node": "node_SceneLight_1_i2"
				},
				"SceneLight_1_color": {
					"type": 35666,
					"node": "node_SceneLight_1_i2"
				},
				"ambient_light_color": {
					"type": 35666
				},
				"Color": {
					"type": 35666
				}
			},
			"attributes": {
				"a_position": "position",
				"a_normal": "normal",
				"a_color": "color",
				"a_tangent": "tangent",
				"a_texcoord0": "texcoord0"
			},
			"uniforms": {
				"u_modelViewMatrix": "modelViewMatrix",
				"u_projectionMatrix": "projectionMatrix",
				"u_normalMatrix": "normalMatrix",
				"u_SceneLight_0_matrix": "SceneLight_0_matrix",
				"u_SceneLight_0_color": "SceneLight_0_color",
				"u_SceneLight_1_matrix": "SceneLight_1_matrix",
				"u_SceneLight_1_color": "SceneLight_1_color",
				"u_ambient_light_color": "ambient_light_color",
				"u_Color": "Color"
			},
			"states": {
				"enable": [
					2929
				],
				"functions": {
					"depthMask": [true]
				}
			}
		}
	},
	"materials": {
		"material_2d35bcf0-e4d8-452c-97b1-3311be063130": {
			"technique": "technique_2d35bcf0-e4d8-452c-97b1-3311be063130",
			"values": {
				"SceneLight_0_color": [0.7780392, 0.8156863, 0.9913726, 1],
				"SceneLight_1_color": [0.4282353, 0.4211765, 0.3458824, 1],
				"ambient_light_color": [0.3921569, 0.3921569, 0.3921569, 1],
				"Color": [1, 1, 1, 1]
			},
			"name": "material_2d35bcf0-e4d8-452c-97b1-3311be063130"
		}
	},
	"nodes": {
		"node_Flat_2d35bcf0-e4d8-452c-97b1-3311be063130_0_i0": {
			"name": "node_Flat_2d35bcf0-e4d8-452c-97b1-3311be063130_0_i0",
			"meshes": [
				"mesh_Flat_2d35bcf0-e4d8-452c-97b1-3311be063130_0_i0"
			],
			"matrix": [1, 0, 0, 0, 0, 1, 0, 0, 0, 0, 1, 0, 0, 0, 0, 1]
		},
		"node_SceneLight_0_i1": {
			"name": "node_SceneLight_0_i1",
			"light": "SceneLight_0",
			"matrix": [0.898794, 0.2191856, -0.3796406, 0, -0.4383712, 0.449397, -0.7783785, 0, -1.490116E-08, 0.8660254, 0.4999999, 0, -0.1343859, 1.261517, -1.221599, 1]
		},
		"node_SceneLight_1_i2": {
			"name": "node_SceneLight_1_i2",
			"light": "SceneLight_1",
			"matrix": [0.7660446, -0.4924039, -0.4131757, 0, -0.6427875, -0.5868244, -0.4924039, 0, 2.980232E-08, 0.6427875, -0.7660447, 0, -0.1343859, 1.247007, -1.303892, 1]
		}
	},
	"scene": "defaultScene",
	"scenes": {
		"defaultScene": {
			"nodes": [
				"node_Flat_2d35bcf0-e4d8-452c-97b1-3311be063130_0_i0",
				"node_SceneLight_0_i1",
				"node_SceneLight_1_i2"
			],
			"extras": {
				"TB_EnvironmentGuid": "ab080599-e465-4a6d-8587-43bf495af68b",
				"TB_Environment": "Standard",
				"TB_UseGradient": "true",
				"TB_SkyColorA": "0.2745098, 0.2745098, 0.3176471",
				"TB_SkyColorB": "0.03529412, 0.03529412, 0.08627451",
				"TB_SkyGradientDirection": "0, 1, 0",
				"TB_FogColor": "0.1647059, 0.1647059, 0.2078431",
				"TB_FogDensity": "0.0025",
				"TB_SkyColorHorizon": "0.2745098, 0.2745098, 0.3176471",
				"TB_SkyColorZenith": "0.03529412, 0.03529412, 0.08627451"
			}
		}
	}
}